<svg width="600" height="152" viewBox="0 0 600 152" fill="none" xmlns="http://www.w3.org/2000/svg">
<path d="M73.2327 140.861C94.9933 139.351 114.034 127.271 125.333 109.582L73.2327 94.2668V140.861Z" fill="#E0645C"/>
<path d="M68.432 0C32.652 0 3.35845 28.2587 0.219849 64.0675L68.2228 83.9134L136.226 64.0675C133.297 28.2587 104.003 0 68.432 0ZM74.7092 74.422H61.9455V61.2632H74.7092V74.422Z" fill="#E0645C"/>
<path d="M7.11416 101.818L53.147 88.4437L0 72.9121C0.41848 83.2667 2.92936 93.1894 7.11416 101.818Z" fill="#E0645C"/>
<path d="M83.4865 88.4437L129.519 101.818C133.704 92.9737 136.215 83.2667 136.633 72.9121L83.4865 88.4437Z" fill="#E0645C"/>
<path d="M11.2982 109.367C22.8064 127.055 41.638 139.135 63.3988 140.646V94.2668L11.2982 109.367Z" fill="#E0645C"/>
<path d="M251.24 29.2312H180.985V45.6629H207.828V124.147H224.606V45.6629H251.24V29.2312Z" fill="black"/>
<path d="M307.445 109.659C307.235 109.876 306.187 110.092 305.557 110.092C303.041 110.092 301.783 108.794 301.783 106.2V82.4172C301.783 67.4987 290.458 56.6882 274.939 56.6882C258.581 56.6882 249.982 68.5797 249.563 69.012L248.934 69.8769L259 80.4712L259.839 79.174C259.839 79.174 265.921 71.1741 274.729 71.1741C281.02 71.1741 285.634 75.066 286.054 80.4712L264.872 84.1466C253.128 86.3087 245.998 94.3087 245.998 105.335C245.998 116.362 255.645 125.226 267.808 125.226C279.343 125.226 285.844 119.389 288.57 116.146C290.039 119.605 294.233 125.226 303.67 125.226C306.396 125.226 308.494 124.578 308.494 124.578L309.333 124.361V108.578L307.445 109.659ZM270.325 111.389C265.082 111.389 261.517 108.362 261.517 104.254C261.517 100.795 264.663 97.9841 269.906 97.1191L286.263 94.0921V94.5248C286.263 104.038 279.343 111.389 270.325 111.389Z" fill="black"/>
<path d="M332.401 29.2273H316.882V124.143H332.401V29.2273Z" fill="black"/>
<path d="M362.181 29.2273H346.662V124.143H362.181V29.2273Z" fill="black"/>
<path d="M419.435 91.0645C419.435 100.794 413.143 107.496 404.125 107.496C396.366 107.496 391.332 102.091 391.332 93.6593V58.2009H376.023V93.6593C376.023 110.956 386.299 122.631 401.608 122.631C410.417 122.631 416.289 117.875 419.435 114.631V118.739C419.435 129.766 413.143 136.468 402.867 136.468C392.8 136.468 386.719 127.82 386.719 127.82L385.88 126.523L374.974 136.901L375.603 137.982C376.023 138.63 385.041 151.819 402.867 151.819C421.322 151.819 434.746 137.982 434.746 118.956V58.4171H419.225V91.0645H419.435Z" fill="black"/>
<path d="M472.913 27.9326C459.91 27.9326 452.361 36.1486 452.361 50.4181V58.202H442.715V73.5528H452.361V124.145H467.88V73.5528H482.558V58.202H467.88V51.7157C467.88 46.0939 470.396 43.2834 475.429 43.2834C478.786 43.2834 481.722 45.0129 481.722 45.0129L483.819 46.3105V30.5271L482.978 30.0947C482.978 29.8785 478.994 27.9326 472.913 27.9326Z" fill="black"/>
<path d="M520.098 56.6882C501.435 56.6882 486.756 71.8229 486.756 91.0655C486.756 110.308 501.435 125.442 520.098 125.442C538.766 125.442 553.444 110.308 553.444 91.0655C553.444 71.8229 538.766 56.6882 520.098 56.6882ZM520.098 110.092C509.824 110.092 502.275 102.092 502.275 91.0655C502.275 80.039 509.824 72.039 520.098 72.039C530.376 72.039 537.925 80.039 537.925 91.0655C537.925 102.092 530.376 110.092 520.098 110.092Z" fill="black"/>
<path d="M595.387 56.6882C586.998 56.6882 581.129 61.0124 578.192 64.2555V57.9854H562.673V123.929H578.192V90.2006C578.192 80.2551 584.901 72.4717 593.499 72.4717C595.807 72.4717 598.324 73.12 598.324 73.12L600 73.5527V56.6882H595.387Z" fill="black"/>
</svg>
